<svg width="128" height="128" viewBox="0 0 128 128" fill="none" xmlns="http://www.w3.org/2000/svg">
  <rect width="128" height="128" rx="28" fill="#0D1117"/>
  <path d="M41 80C30.5 80 22 71.5 22 61C22 51.3 29.3 43.3 38.8 42.2C43.2 31.5 53.8 24 66 24C80.9 24 93.3 35 95.4 49.3C101.8 51.4 106.5 57.5 106.5 64.6C106.5 73.1 99.6 80 91.1 80H41Z" fill="#F38020"/>
  <path d="M48 80L38 104L62 84L54 84L64 60L40 80H48Z" fill="#FFFFFF"/>
  <path d="M76 55H94" stroke="#FFFFFF" stroke-width="6" stroke-linecap="round"/>
  <path d="M76 67H88" stroke="#FFFFFF" stroke-width="6" stroke-linecap="round" opacity="0.85"/>
</svg>
